<?xml version="1.0" encoding="utf-8"?>
<!-- Generator: Adobe Illustrator 23.0.3, SVG Export Plug-In . SVG Version: 6.00 Build 0)  -->
<svg version="1.1" id="FALAFELKING" xmlns="http://www.w3.org/2000/svg" xmlns:xlink="http://www.w3.org/1999/xlink" x="0px"
	 y="0px" viewBox="0 0 858 184" style="enable-background:new 0 0 858 184;" xml:space="preserve">
<style type="text/css">
	.st0{enable-background:new    ;}
	.st1{fill:#D32921;}
	.st2{fill:#010000;}
</style>
<g>
	<g class="st0">
		<path class="st1" d="M158.8,35.1c7.5,0.9,12.4,6.6,14.6,17.1S175,68,171.5,68h-1.4c-2.5,0-3.8-4.5-4-13.4
			c-2.7-6.8-7.3-10.3-13.9-10.5c-6.5-0.2-10.9,2.2-13.1,7.3c-1.2,3.5-1.8,7.3-1.8,11.6l0.4,6.9l13.9-0.6c4.1,0,6.2,1.7,6.2,5.1
			c0,2.7-5.4,4-16.1,3.9h-3.3v2.2l0.5,66.1c0,2.1-1.6,3.5-4.7,4.4h-0.7c-3.4,0-5.1-2.4-5.1-7.3l-0.7-16l0.6-49.1l-4.4,0.4
			c-2.9,0-4.4-0.8-4.4-2.5c-0.4-4.3,2.3-6.2,8.3-5.8v-1.8l-0.4-4.4c0.3-13.5,3.8-22,10.3-25.5C144.3,35.5,151.3,34.2,158.8,35.1z"/>
		<path class="st1" d="M216.5,33.9c10.4,0,18.3,6.5,23.6,19.6c1.2,0,2.5,21.7,3.8,65.2c1.3,13.3,2.5,20,3.6,20c2.7,1.1,4,2.8,4,5.1
			c-0.9,4.8-2.9,7.3-5.8,7.3h-1.8c-4.9,0-8.2-4.2-9.8-12.7c-7.1,5.1-14.6,7.6-22.5,7.6h-3.3c-13.8,0-23.1-7.7-27.9-23.2
			c-1.7-6.2-2.5-12.1-2.5-17.8c0-15.3,5.7-26.8,17-34.5c5.3-2.7,10.9-4,16.7-4h1.5c5.4,0,11.5,1.5,18.1,4.4v-1.8
			c0.1-13.1-3.6-21.6-11.1-25.3l-3.6-0.4h-1.1c-7.2,0-15.2,4.8-23.9,14.5h-0.4c-1.7,0-2.5-0.8-2.5-2.5c0-6.5,5.7-12.9,17-19.2
			C210.5,34.6,214.2,33.9,216.5,33.9z M188.9,107.7c0.4,6.6,2.5,13.1,6.2,19.6c3.7,6.5,10.5,9.5,20.2,9s15.4-5.7,17-15.5
			c-0.4-8.1-0.7-18.5-0.7-31.4v-0.7c0-3.5-1.8-6.2-5.5-8.2s-9.2-3.1-16.5-3.3c-7.3-0.2-12.7,3.2-16.2,10.1S188.5,101.1,188.9,107.7z
			"/>
		<path class="st1" d="M259.9,33.1c2.7,0,4,4.4,4,13.1c0.7,9.6,1.3,40.5,1.8,92.9l0.4-0.4l3.6,0.4h15.2l14.1,0.4
			c2.4,1.3,3.6,3,3.6,5.1c0,3.8-2.3,6-6.9,6.5c-26.6,0-39.9-0.8-39.9-2.5l-1.5-2.5l0.4-12.7l-0.4-10.9c0.4-59,1.3-88.5,2.9-88.5
			L259.9,33.1z"/>
		<path class="st1" d="M342.9,33.9c10.4,0,18.3,6.5,23.6,19.6c1.2,0,2.5,21.7,3.8,65.2c1.3,13.3,2.5,20,3.6,20c2.7,1.1,4,2.8,4,5.1
			c-0.9,4.8-2.9,7.3-5.8,7.3h-1.8c-4.9,0-8.2-4.2-9.8-12.7c-7.1,5.1-14.6,7.6-22.5,7.6h-3.3c-13.8,0-23.1-7.7-27.9-23.2
			c-1.7-6.2-2.5-12.1-2.5-17.8c0-15.3,5.7-26.8,17-34.5c5.3-2.7,10.9-4,16.7-4h1.5c5.4,0,11.5,1.5,18.1,4.4v-1.8
			c0.1-13.1-3.6-21.6-11.1-25.3l-3.6-0.4h-1.1c-7.2,0-15.2,4.8-23.9,14.5h-0.4c-1.7,0-2.5-0.8-2.5-2.5c0-6.5,5.7-12.9,17-19.2
			C337,34.6,340.6,33.9,342.9,33.9z M315.3,107.7c0.4,6.6,2.5,13.1,6.2,19.6c3.7,6.5,10.5,9.5,20.2,9s15.4-5.7,17-15.5
			c-0.4-8.1-0.7-18.5-0.7-31.4v-0.7c0-3.5-1.8-6.2-5.5-8.2s-9.2-3.1-16.5-3.3c-7.3-0.2-12.7,3.2-16.2,10.1S314.9,101.1,315.3,107.7z
			"/>
		<path class="st1" d="M420,35.1c7.5,0.9,12.4,6.6,14.6,17.1s1.6,15.8-1.9,15.8h-1.5c-2.5,0-3.8-4.5-4-13.4
			c-2.7-6.8-7.3-10.3-13.9-10.5c-6.5-0.2-10.9,2.2-13.1,7.3c-1.2,3.5-1.8,7.3-1.8,11.6l0.4,6.9l13.9-0.6c4.1,0,6.2,1.7,6.2,5.1
			c0,2.7-5.4,4-16.1,3.9h-3.3v2.2l0.6,66.1c0,2.1-1.6,3.5-4.7,4.4h-0.7c-3.4,0-5.1-2.4-5.1-7.3l-0.7-16l0.6-49.1l-4.4,0.4
			c-2.9,0-4.4-0.8-4.4-2.5c-0.4-4.3,2.3-6.2,8.3-5.8v-1.8l-0.4-4.4c0.3-13.5,3.8-22,10.3-25.5C405.4,35.5,412.5,34.2,420,35.1z"/>
		<path class="st1" d="M469.7,35l1.1,0.1c9.4,0.5,14,2.9,13.8,7.3c-0.1,2.2-1.7,3.6-4.9,4.1c-4.9-1.5-9.5-2.3-13.7-2.5l-1.1-0.1
			l-15.4-0.1l-0.3,23.3c6.5-0.9,16.4-1.5,29.5-1.8c2.1,1,3.2,2.2,3.1,3.8l-0.1,1.8c-0.1,2.1-5.6,2.9-16.4,2.4c0,0.3-5.4,0.6-16,0.7
			l0.2,64.5h0.4l29.1,1.2c3,0.2,4.7,2.2,5.1,6.1l-0.1,1.1c-0.1,2.7-14,3.7-41.6,3.2l-1.1-0.1c-2.1-0.1-3.6-1.9-4.5-5.3
			c0.9-3.8,1.5-7.2,1.6-10.1c0.7-31.5,1.2-59.1,1.4-83l0.5-9.1c0.1-2.2,1.3-4.4,3.6-6.3l1.1,0.1l0.7,0.7
			C451.7,35.1,459.7,34.5,469.7,35z"/>
		<path class="st1" d="M492.7,33.1c2.7,0,4,4.4,4,13.1c0.7,9.6,1.3,40.5,1.8,92.9l0.4-0.4l3.6,0.4h15.2l14.1,0.4
			c2.4,1.3,3.6,3,3.6,5.1c0,3.8-2.3,6-6.9,6.5c-26.6,0-39.9-0.8-39.9-2.5l-1.5-2.5l0.4-12.7l-0.4-10.9c0.4-59,1.3-88.5,2.9-88.5
			L492.7,33.1z"/>
	</g>
	<g class="st0">
		<path class="st2" d="M585.2,37.1h2.2c1.7,0.9,2.5,2,2.5,3.3c0,3.7-4,8.9-12,15.6c-5.1,5.3-10,10.4-14.8,15.2
			c3,3.5,9.8,18.2,20.6,44.3c9.2,14.1,14.3,22.6,15.2,25.4c0,3.3-2.1,5.2-6.2,5.8c-2.8,0-7.7-6.9-14.5-20.7
			c-4.7-7.4-11.8-23.3-21.5-47.6c0.3-0.2-0.9,0.8-3.8,3l-0.4,13.1l-0.4,35.5l1.1,14.9v1.5c0,2.5-1.7,4-5.1,4.7
			c-4.1-0.9-6.2-4.6-6.2-11.2l-0.4-10.9l1.1-30.5l0.8-21.4l-1.1-23.9l-0.7-10.5c0-2.3,1-3.9,2.9-4.7c4.6,0,7.3,9.8,8,29.4v3.3h0.4
			c5-6.3,14.1-16,27.2-29.4C581.8,38.4,583.5,37.1,585.2,37.1z"/>
		<path class="st2" d="M610.1,34.3h1.5c6.5,0.7,9.8,3.2,9.8,7.6v1.8c-1.5,6.5-4.5,9.8-9.1,9.8h-2.2c-5.1-1.1-7.6-3.7-7.6-7.6v-0.7
			c0-3.8,1.9-7.2,5.8-10.2C608.3,34.6,608.9,34.3,610.1,34.3z M617.2,62.9c0.6-0.8,1,23.4,1.2,72.5v2.2l0.4,8.7
			c-1,3.1-3.3,4.7-6.9,4.7c-3.4,0-5.1-2.5-5.1-7.6v-2.9c-0.1-51.4,0.4-77.2,1.5-77.2C609.1,61.6,612,61.4,617.2,62.9z M609.4,42.2
			L609,44c0,0.9,0.6,1.6,1.8,2.2c1.7-0.7,2.5-1.9,2.5-3.6h-3.2l-0.4-0.4H609.4z"/>
		<path class="st2" d="M653.9,36.9v0.4l0.4-0.4c8.9,0,16.2,3.6,21.8,10.9c2.9,5.3,4.4,12.2,4.4,20.7v20.3l0.6,54.9
			c-1,4.1-3,6.2-6.2,6.2c-2.3,0-3.9-1.4-4.6-4.3c-0.7-2.9-1.1-10.1-1.2-21.8l1.2-57.8c0.5-12.4-4-18.6-13.7-18.6h-1.5
			c-8.3,0-14.8,3.5-19.3,10.4c1.2,62.2,0.6,93.3-1.7,93.3h-3.6h-0.4c-1.9,0-3.5-1.5-4.7-4.4l0.2-61.8l1.5-41l-0.4-3.3
			c0.6-1.9,1.7-2.9,3.3-2.9s2.8,2.2,3.6,6.5C639.4,39.3,646.2,36.9,653.9,36.9z"/>
		<path class="st2" d="M712.2,36.3h1.8c7.9,0,13.2,4.1,16,12.3l0.7,6.2l-1.5,1.1h-1.1c-0.5,0-1.3-1.5-2.5-4.4
			c-3.6-4.8-7.3-7.3-11.2-7.3h-0.7c-7.4,0-13.1,8.5-17,25.4l-1.8,35.5c0,17.1,5,28.3,14.9,33.7l1.5,0.4h2.2c3.2,0,6.7-2.9,10.5-8.7
			c1.7-4.5,2.5-9.3,2.5-14.5l-1.1-26.8l-1.8,0.4c-8.7,0-13.1-1.3-13.1-4c0-2.4,3.5-3.6,10.5-3.6c5.5,0,9.4-0.6,11.6-1.8
			c2.7,0.6,4,3.1,4,7.6c0.5,0,0.7,1.3,0.7,4L738,115v1.5c0,17.2-6.5,28.4-19.6,33.7l-5.8,0.7c-9.3,0-17-6.2-23.2-18.5
			c-3.1-6.6-4.7-14.6-4.7-23.9v-0.4c0-6.2,1.1-20.5,3.3-42.8C694,46,702.1,36.3,712.2,36.3z"/>
	</g>
</g>
</svg>
